# xmcd CD database file
#
# Track frame offsets:
#	150
#	11817
#	25490
#	38188
#	51248
#	64559
#	75836
#	87364
#	100341
#	110768
#	122087
#	139229
#
# Disc length: 2047 seconds
#
# Revision: 0
# Processed by: cddbd v1.5.2PL0 Copyright (c) Steve Scherf et al.
# Submitted via: CDex 1.70beta2
#
DISCID=9e07fd0c
DTITLE=Various Artist - 決定盤カントリー and ウエスタン大全集 ２
DYEAR=1900
DGENRE=Country
TTITLE0=思い出のグリーン グラス (ジョニー キャッシュ)
TTITLE1=ローズ ガーデン (リン アンダーソン)
TTITLE2=朝焼けの少女 (チャーリー リッチ)
TTITLE3=アラスカ魂 (ジョニー ホートン)
TTITLE4=二人の青い鳥 (タミー ウィネット, デビット ヒューストン)
TTITLE5=テネシー ワルツ (パティー ペイジ)
TTITLE6=ユア チーディン ハート〈偽りの心〉 (フランキー レイン)
TTITLE7=悲しきディスク ジョッキー (ストーンウォール ジャクソン)
TTITLE8=ホンキー トンク マン (ジョニー ホートン)
TTITLE9=レッド リバー バレー (マーティー ロビンス)
TTITLE10=コールド コールド ハート (レイ プライス)
TTITLE11=永遠の絆 (カーター ファミリー)
EXTD=
EXTT0=
EXTT1=
EXTT2=
EXTT3=
EXTT4=
EXTT5=
EXTT6=
EXTT7=
EXTT8=
EXTT9=
EXTT10=
EXTT11=
PLAYORDER=
